<?xml version="1.0" encoding="UTF-8"?>
<svg xmlns="http://www.w3.org/2000/svg" xmlns:xlink="http://www.w3.org/1999/xlink" width="50px" height="50px" viewBox="0 0 50 50" version="1.1">
<g id="surface1">
<path style=" stroke:none;fill-rule:nonzero;fill:rgb(88.627451%,47.058824%,40%);fill-opacity:1;" d="M 1.5625 6.265625 L 48.433594 6.265625 C 49.296875 6.265625 49.996094 4.863281 49.996094 3.132812 C 49.996094 1.402344 49.296875 0 48.433594 0 L 1.5625 0 C 0.699219 0 0 1.402344 0 3.132812 C 0 4.863281 0.699219 6.265625 1.5625 6.265625 Z M 1.5625 6.265625 "/>
<path style=" stroke:none;fill-rule:nonzero;fill:rgb(88.627451%,47.058824%,40%);fill-opacity:1;" d="M 48.433594 21.929688 L 1.5625 21.929688 C 0.699219 21.929688 0 23.332031 0 25.0625 C 0 26.792969 0.699219 28.195312 1.5625 28.195312 L 48.433594 28.195312 C 49.296875 28.195312 49.996094 26.792969 49.996094 25.0625 C 49.996094 23.332031 49.296875 21.929688 48.433594 21.929688 Z M 48.433594 21.929688 "/>
<path style=" stroke:none;fill-rule:nonzero;fill:rgb(88.627451%,47.058824%,40%);fill-opacity:1;" d="M 48.433594 43.859375 L 17.1875 43.859375 C 16.324219 43.859375 15.625 45.261719 15.625 46.992188 C 15.625 48.722656 16.324219 50.125 17.1875 50.125 L 48.433594 50.125 C 49.296875 50.125 49.996094 48.722656 49.996094 46.992188 C 49.996094 45.261719 49.296875 43.859375 48.433594 43.859375 Z M 48.433594 43.859375 "/>
</g>
</svg>
